PathFileType	4	(X/Y/Z)	 2.8Hzlow3min.trc
DataRate	CameraRate	NumFrames	NumMarkers	Units	OrigDataRate	OrigDataStartFrame	OrigNumFrames
200	200	8	43	m	200	376	1000
Frame#	Time	C7			LSH			RSH			MAN			RASI			LASI			HIPR			HIPL			RPSI			LPSI			COX			RTHI1			RTHI2			RTHI3			RTHI4			RLKN			RMKN			RSHA1			RSHA2			RSHA3			RSHA4			RLMAL			RMMAL			RHEEL			RMET5			RMET1			RTOE			LTHI1			LTHI2			LTHI3			LTHI4			LLKN			LMKN			LSHA1			LSHA2			LSHA3			LSHA4			LLMAL			LMMAL			LHEEL			LMET5			LMET1			LTOE			
		X1	Y1	Z1	X2	Y2	Z2	X3	Y3	Z3	X4	Y4	Z4	X5	Y5	Z5	X6	Y6	Z6	X7	Y7	Z7	X8	Y8	Z8	X9	Y9	Z9	X10	Y10	Z10	X11	Y11	Z11	X12	Y12	Z12	X13	Y13	Z13	X14	Y14	Z14	X15	Y15	Z15	X16	Y16	Z16	X17	Y17	Z17	X18	Y18	Z18	X19	Y19	Z19	X20	Y20	Z20	X21	Y21	Z21	X22	Y22	Z22	X23	Y23	Z23	X24	Y24	Z24	X25	Y25	Z25	X26	Y26	Z26	X27	Y27	Z27	X28	Y28	Z28	X29	Y29	Z29	X30	Y30	Z30	X31	Y31	Z31	X32	Y32	Z32	X33	Y33	Z33	X34	Y34	Z34	X35	Y35	Z35	X36	Y36	Z36	X37	Y37	Z37	X38	Y38	Z38	X39	Y39	Z39	X40	Y40	Z40	X41	Y41	Z41	X42	Y42	Z42	X43	Y43	Z43	
376	1.8800	-0.312030	1.481384	-0.547234	-0.256975	1.491890	-0.729713	-0.244388	1.486642	-0.379433	-0.186428	1.413576	-0.544542	-0.176138	0.999969	-0.439922	-0.162653	0.996546	-0.653820	-0.246265	1.040217	-0.407854	-0.226664	1.036048	-0.691087	-0.325474	1.034464	-0.494620	-0.321232	1.027965	-0.601337	-0.326662	1.027974	-0.549855	-0.254841	0.788777	-0.359077	-0.238625	0.731066	-0.355085	-0.178124	0.742757	-0.374890	-0.186569	0.803645	-0.381574	-0.256089	0.484715	-0.370701	-0.254211	0.469676	-0.470768	-0.368098	0.324592	-0.364992	-0.381841	0.287418	-0.372765	-0.328550	0.267700	-0.376004	-0.310476	0.306058	-0.371462	-0.405352	0.145350	-0.390272	-0.380123	0.154531	-0.465521	-0.452893	0.138095	-0.441549	-0.328302	0.041402	-0.362168	-0.275877	0.041705	-0.430264	-0.256987	0.037105	-0.421479	-0.272156	0.790118	-0.735928	-0.258249	0.730804	-0.745857	-0.193580	0.739762	-0.745378	-0.199973	0.798618	-0.736911	-0.235360	0.495276	-0.748595	-0.241617	0.478586	-0.640232	-0.347633	0.306180	-0.768264	-0.354616	0.261715	-0.764696	-0.301681	0.251423	-0.763045	-0.287665	0.289810	-0.765318	-0.355108	0.140512	-0.765762	-0.357213	0.146823	-0.687743	-0.415682	0.134492	-0.730142	-0.268832	0.040355	-0.763546	-0.246894	0.047297	-0.683688	-0.221603	0.038443	-0.685811	
377	1.8850	-0.312160	1.485059	-0.547327	-0.256858	1.495890	-0.729414	-0.244925	1.490935	-0.379701	-0.186675	1.418016	-0.544466	-0.175309	1.003677	-0.439603	-0.161624	1.000376	-0.653333	-0.245442	1.044249	-0.407795	-0.225398	1.040465	-0.690631	-0.324460	1.038573	-0.494467	-0.320103	1.032140	-0.601192	-0.325596	1.032130	-0.549699	-0.254906	0.792435	-0.358743	-0.238975	0.734643	-0.354749	-0.178382	0.746054	-0.374447	-0.186530	0.806978	-0.381126	-0.257100	0.488474	-0.370437	-0.254931	0.473169	-0.470571	-0.367865	0.327763	-0.364715	-0.381445	0.290284	-0.372574	-0.327772	0.271090	-0.375069	-0.310035	0.309637	-0.370719	-0.403384	0.147580	-0.389225	-0.377883	0.156826	-0.464277	-0.450726	0.140976	-0.440646	-0.327520	0.042035	-0.361963	-0.275752	0.041861	-0.430251	-0.256879	0.037251	-0.421361	-0.271694	0.794355	-0.735764	-0.258202	0.734936	-0.745678	-0.193463	0.743391	-0.744899	-0.199434	0.802296	-0.736419	-0.236907	0.498906	-0.748072	-0.243174	0.482193	-0.639635	-0.347540	0.308991	-0.767744	-0.354050	0.264407	-0.764433	-0.300998	0.254650	-0.763104	-0.287379	0.293192	-0.765215	-0.353395	0.142949	-0.765898	-0.354971	0.149034	-0.688056	-0.413645	0.137363	-0.729802	-0.268420	0.040730	-0.763277	-0.246576	0.047394	-0.683749	-0.221424	0.038524	-0.685812	
378	1.8900	-0.312283	1.488600	-0.547420	-0.256753	1.499718	-0.729117	-0.245464	1.495097	-0.379955	-0.186919	1.422327	-0.544390	-0.174508	1.007205	-0.439301	-0.160615	1.004043	-0.652830	-0.244584	1.048142	-0.407718	-0.224116	1.044766	-0.690189	-0.323452	1.042584	-0.494304	-0.318991	1.036220	-0.601030	-0.324543	1.036195	-0.549519	-0.254999	0.795952	-0.358401	-0.239330	0.738092	-0.354403	-0.178655	0.749226	-0.373994	-0.186520	0.810191	-0.380666	-0.258063	0.492084	-0.370219	-0.255613	0.476531	-0.470409	-0.367594	0.330814	-0.364484	-0.381016	0.293039	-0.372443	-0.326977	0.274349	-0.374193	-0.309576	0.313075	-0.370053	-0.401402	0.149744	-0.388203	-0.375610	0.159025	-0.463080	-0.448530	0.143755	-0.439764	-0.326686	0.042755	-0.361773	-0.275605	0.042054	-0.430199	-0.256814	0.037417	-0.421146	-0.271267	0.798463	-0.735586	-0.258181	0.738938	-0.745486	-0.193387	0.746918	-0.744447	-0.198938	0.805858	-0.735954	-0.238426	0.502445	-0.747546	-0.244632	0.485683	-0.639038	-0.347379	0.311737	-0.767195	-0.353416	0.267028	-0.764131	-0.300272	0.257810	-0.763131	-0.287033	0.296482	-0.765072	-0.351638	0.145308	-0.765997	-0.352630	0.151203	-0.688324	-0.411559	0.140193	-0.729399	-0.268011	0.041142	-0.762998	-0.246255	0.047525	-0.683760	-0.221169	0.038620	-0.685816	
379	1.8950	-0.312394	1.491992	-0.547506	-0.256663	1.503348	-0.728825	-0.246007	1.499102	-0.380178	-0.187147	1.426477	-0.544313	-0.173744	1.010544	-0.439020	-0.159635	1.007532	-0.652314	-0.243701	1.051871	-0.407624	-0.222845	1.048906	-0.689760	-0.322469	1.046472	-0.494124	-0.317900	1.040185	-0.600846	-0.323528	1.040160	-0.549340	-0.255108	0.799300	-0.358053	-0.239682	0.741390	-0.354044	-0.178930	0.752263	-0.373539	-0.186533	0.813257	-0.380205	-0.258970	0.495518	-0.370053	-0.256252	0.479749	-0.470289	-0.367278	0.333728	-0.364291	-0.380462	0.295712	-0.372252	-0.326161	0.277472	-0.373385	-0.309097	0.316366	-0.369458	-0.399419	0.151851	-0.387220	-0.373322	0.161124	-0.461930	-0.446338	0.146408	-0.438892	-0.325804	0.043570	-0.361592	-0.275436	0.042285	-0.430085	-0.256814	0.037616	-0.420829	-0.270886	0.802393	-0.735388	-0.258189	0.742770	-0.745273	-0.193348	0.750300	-0.744008	-0.198496	0.809277	-0.735519	-0.239904	0.505865	-0.747012	-0.245987	0.489024	-0.638442	-0.347141	0.314375	-0.766617	-0.352720	0.269553	-0.763807	-0.299497	0.260888	-0.763115	-0.286627	0.299651	-0.764869	-0.349849	0.147578	-0.766060	-0.350253	0.153313	-0.688539	-0.409441	0.142958	-0.728963	-0.267585	0.041611	-0.762707	-0.245929	0.047701	-0.683716	-0.220837	0.038727	-0.685834	
380	1.9000	-0.312488	1.495212	-0.547584	-0.256591	1.506760	-0.728542	-0.246524	1.502888	-0.380392	-0.187348	1.430431	-0.544234	-0.173023	1.013682	-0.438759	-0.158691	1.010827	-0.651792	-0.242810	1.055419	-0.407516	-0.221588	1.052851	-0.689337	-0.321517	1.050204	-0.493926	-0.316838	1.043997	-0.600646	-0.322550	1.043981	-0.549143	-0.255222	0.802472	-0.357706	-0.240020	0.744513	-0.353679	-0.179201	0.755153	-0.373085	-0.186559	0.816174	-0.379746	-0.259795	0.498773	-0.369930	-0.256834	0.482808	-0.470214	-0.366911	0.336490	-0.364126	-0.379778	0.298300	-0.371991	-0.325328	0.280440	-0.372648	-0.308602	0.319497	-0.368945	-0.397446	0.153899	-0.386282	-0.371063	0.163126	-0.460837	-0.444186	0.148948	-0.438064	-0.324876	0.044502	-0.361428	-0.275245	0.042559	-0.429888	-0.256872	0.037875	-0.420403	-0.270555	0.806108	-0.735169	-0.258226	0.746401	-0.745037	-0.193346	0.753512	-0.743596	-0.198113	0.812521	-0.735114	-0.241324	0.509141	-0.746472	-0.247236	0.492193	-0.637835	-0.346840	0.316867	-0.766054	-0.351955	0.271958	-0.763468	-0.298656	0.263847	-0.763043	-0.286160	0.302694	-0.764608	-0.348033	0.149756	-0.766094	-0.347877	0.155343	-0.688700	-0.407313	0.145643	-0.728537	-0.267120	0.042163	-0.762398	-0.245607	0.047915	-0.683640	-0.220448	0.038843	-0.685906	
381	1.9050	-0.312557	1.498246	-0.547650	-0.256531	1.509935	-0.728274	-0.247012	1.506446	-0.380570	-0.187514	1.434160	-0.544153	-0.172343	1.016614	-0.438504	-0.157793	1.013919	-0.651271	-0.241921	1.058770	-0.407393	-0.220368	1.056575	-0.688912	-0.320600	1.053753	-0.493717	-0.315819	1.047621	-0.600432	-0.321610	1.047625	-0.548931	-0.255337	0.805449	-0.357359	-0.240333	0.747439	-0.353321	-0.179458	0.757874	-0.372640	-0.186592	0.818919	-0.379299	-0.260531	0.501844	-0.369857	-0.257343	0.485689	-0.470178	-0.366491	0.339086	-0.363984	-0.378959	0.300778	-0.371651	-0.324483	0.283247	-0.371995	-0.308079	0.322443	-0.368508	-0.395510	0.155869	-0.385411	-0.368865	0.165044	-0.459814	-0.442115	0.151357	-0.437306	-0.323920	0.045545	-0.361261	-0.275024	0.042905	-0.429586	-0.256972	0.038241	-0.419851	-0.270278	0.809579	-0.734928	-0.258288	0.749806	-0.744781	-0.193377	0.756523	-0.743206	-0.197795	0.815570	-0.734743	-0.242662	0.512244	-0.745922	-0.248387	0.495182	-0.637222	-0.346472	0.319208	-0.765509	-0.351129	0.274214	-0.763119	-0.297770	0.266661	-0.762906	-0.285638	0.305584	-0.764298	-0.346198	0.151838	-0.766097	-0.345541	0.157296	-0.688807	-0.405203	0.148218	-0.728148	-0.266602	0.042808	-0.762069	-0.245264	0.048171	-0.683544	-0.220025	0.038963	-0.686040	
382	1.9100	-0.312596	1.501085	-0.547702	-0.256480	1.512855	-0.728023	-0.247466	1.509771	-0.380698	-0.187643	1.437638	-0.544066	-0.171712	1.019335	-0.438258	-0.156941	1.016804	-0.650751	-0.241047	1.061909	-0.407253	-0.219189	1.060055	-0.688481	-0.319724	1.057095	-0.493501	-0.314856	1.051041	-0.600206	-0.320724	1.051057	-0.548714	-0.255439	0.808218	-0.357018	-0.240612	0.750164	-0.352971	-0.179691	0.760410	-0.372216	-0.186621	0.821481	-0.378867	-0.261159	0.504721	-0.369812	-0.257745	0.488388	-0.470181	-0.366018	0.341510	-0.363859	-0.378045	0.303133	-0.371253	-0.323643	0.285883	-0.371428	-0.307506	0.325188	-0.368121	-0.393651	0.157751	-0.384616	-0.366782	0.166878	-0.458884	-0.440152	0.153624	-0.436660	-0.322961	0.046696	-0.361068	-0.274754	0.043365	-0.429162	-0.257068	0.038773	-0.419159	-0.270058	0.812788	-0.734668	-0.258373	0.752956	-0.744501	-0.193437	0.759318	-0.742835	-0.197536	0.818402	-0.734396	-0.243897	0.515144	-0.745363	-0.249442	0.497968	-0.636601	-0.346034	0.321386	-0.764997	-0.350258	0.276290	-0.762773	-0.296850	0.269286	-0.762706	-0.285064	0.308293	-0.763932	-0.344354	0.153812	-0.766066	-0.343297	0.159147	-0.688859	-0.403148	0.150660	-0.727816	-0.266017	0.043559	-0.761711	-0.244889	0.048463	-0.683443	-0.219607	0.039085	-0.686253	
383	1.9150	-0.312604	1.503717	-0.547736	-0.256432	1.515508	-0.727796	-0.247867	1.512819	-0.380811	-0.187723	1.440843	-0.543967	-0.171130	1.021838	-0.438014	-0.156149	1.019465	-0.650239	-0.240213	1.064814	-0.407098	-0.218053	1.063274	-0.688047	-0.318900	1.060210	-0.493281	-0.313948	1.054234	-0.599972	-0.319896	1.054261	-0.548491	-0.255523	0.810765	-0.356689	-0.240853	0.752674	-0.352640	-0.179886	0.762758	-0.371818	-0.186642	0.823852	-0.378456	-0.261662	0.507377	-0.369785	-0.258026	0.490894	-0.470216	-0.365505	0.343749	-0.363742	-0.377174	0.305304	-0.370935	-0.322804	0.288332	-0.370947	-0.306890	0.327728	-0.367777	-0.391926	0.159547	-0.383914	-0.364854	0.168628	-0.458065	-0.438322	0.155694	-0.436139	-0.322013	0.047967	-0.360826	-0.274391	0.044000	-0.428587	-0.257084	0.039542	-0.418306	-0.269894	0.815709	-0.734385	-0.258479	0.755835	-0.744205	-0.193518	0.761874	-0.742477	-0.197336	0.821003	-0.734074	-0.245001	0.517816	-0.744794	-0.250399	0.500532	-0.635969	-0.345544	0.323359	-0.764534	-0.349360	0.278198	-0.762463	-0.295903	0.271700	-0.762439	-0.284444	0.310795	-0.763518	-0.342532	0.155667	-0.766003	-0.341210	0.160893	-0.688857	-0.401192	0.152938	-0.727555	-0.265366	0.044414	-0.761321	-0.244479	0.048790	-0.683368	-0.219207	0.039223	-0.686560	
